<svg width="56" height="56" viewBox="0 0 56 56" fill="none" xmlns="http://www.w3.org/2000/svg">
<path d="M30.3333 14.14V7H25.6667V14.14C15.1667 15.3067 7 24.1967 7 34.9767C7 37.5667 9.1 39.6667 11.69 39.6667H18.6667C18.6667 44.8233 22.8433 49 28 49C33.1567 49 37.3333 44.8233 37.3333 39.6667H44.31C46.9 39.6667 49 37.5667 49 34.9767C49 24.1967 40.8333 15.3067 30.3333 14.14ZM28 44.3333C25.4333 44.3333 23.3333 42.2333 23.3333 39.6667H28H32.6667C32.6667 42.2333 30.5667 44.3333 28 44.3333ZM28 35H11.6667C11.6667 25.9933 18.9933 18.6667 28 18.6667C37.0067 18.6667 44.3333 25.9933 44.3333 35H28Z" fill="#7aa65f"/>
</svg>
