<svg width="56" height="56" viewBox="0 0 56 56" fill="none" xmlns="http://www.w3.org/2000/svg">
<path d="M33.8346 39.6667C33.8346 43.5167 30.6846 46.6667 26.8346 46.6667C22.9846 46.6667 19.8346 43.5167 19.8346 39.6667H24.5013C24.5013 40.95 25.5513 42 26.8346 42C28.118 42 29.168 40.95 29.168 39.6667C29.168 38.3833 28.118 37.3333 26.8346 37.3333H4.66797V32.6667H26.8346C30.6846 32.6667 33.8346 35.8167 33.8346 39.6667ZM44.3346 15.1667C44.3346 10.6633 40.6713 7 36.168 7C31.6646 7 28.0013 10.6633 28.0013 15.1667H32.668C32.668 13.23 34.2313 11.6667 36.168 11.6667C38.1046 11.6667 39.668 13.23 39.668 15.1667C39.668 17.1033 38.1046 18.6667 36.168 18.6667H4.66797V23.3333H36.168C40.6713 23.3333 44.3346 19.67 44.3346 15.1667ZM43.168 25.6667H4.66797V30.3333H43.168C45.1046 30.3333 46.668 31.8967 46.668 33.8333C46.668 35.77 45.1046 37.3333 43.168 37.3333V42C47.6713 42 51.3346 38.3367 51.3346 33.8333C51.3346 29.33 47.6713 25.6667 43.168 25.6667Z" fill="#7aa65f"/>
</svg>
