<svg width="56" height="56" viewBox="0 0 56 56" fill="none" xmlns="http://www.w3.org/2000/svg">
<path d="M28.0013 46.6663H4.66797V41.9997H18.0846C16.3813 35.443 11.2246 30.3097 4.66797 28.6063C6.1613 28.233 7.72464 27.9997 9.33464 27.9997C19.648 27.9997 28.0013 36.353 28.0013 46.6663ZM51.3346 28.6063C49.8413 28.233 48.278 27.9997 46.668 27.9997C39.8313 27.9997 33.8813 31.6863 30.6146 37.1697C31.2913 38.7097 31.8513 40.3197 32.178 41.9997C32.4813 43.5163 32.6446 45.0797 32.6446 46.6663H37.3113H51.3113V41.9997H37.8946C39.6213 35.443 44.778 30.3097 51.3346 28.6063ZM36.4946 25.713C38.3146 20.8363 41.698 16.753 46.038 14.0463C36.028 14.373 28.0013 22.563 28.0013 32.6663C28.0013 32.6897 28.0013 32.713 28.0013 32.713C30.218 29.7497 33.1346 27.3463 36.4946 25.713ZM26.648 20.6497C24.688 15.5397 20.7213 11.4097 15.6346 9.33301C18.9946 13.673 21.0013 19.0863 21.0013 24.9897C21.0013 25.4797 20.9313 25.9463 20.908 26.413C21.9113 26.973 22.8446 27.6263 23.7546 28.3263C24.2446 25.573 25.2713 22.983 26.648 20.6497Z" fill="#7aa65f"/>
</svg>
